<?xml version="1.0" encoding="UTF-8"?><svg id="Layer_1" xmlns="http://www.w3.org/2000/svg" viewBox="0 0 848.87 201.58"><defs><style>.cls-1{fill:#5d5c5c;stroke-width:0px;}</style></defs><path class="cls-1" d="m287.99,110.06c-.32-.81-.98-.98-3.26-1.14-2.27-.16-5.69-1.14-7.15-2.77-1.31-1.63-1.62-8.78-1.62-14.8v-35.93c0-20.65.16-44.23.65-52.37.16-1.78,0-2.93-.81-2.93-1.15,0-2.29.33-3.75.5-3.09.65-11.54,2.12-17.88,3.41-.98.17-1.31.5-1.31,1.15v2.76c0,.66.17.98,1.14,1.14,9.1,1.48,10.25,3.42,10.25,9.6v31.71c-4.88-1.46-10.74-2.43-17.4-2.43-9.11,0-17.89,3.41-24.24,10.24-7.64,7.64-11.37,17.56-11.37,27.65,0,10.89,1.95,18.21,10.24,26.34,7.64,7.81,13.82,7.48,19.19,7.48,8.29,0,18.7-3.58,23.9-8.79l2.11,7.15c.32,1.14,1.14,1.63,2.11,1.3l18.38-6.18c.97-.33,1.3-.81,1.14-1.78l-.33-1.31Zm-23.74-11.87c0,1.79-.16,3.09-.98,5.53-1.63,4.23-8.62,8.95-17.72,8.95s-22.11-13.34-22.11-31.71c0-6.18,1.13-14.8,7.48-21.62,4.23-4.4,9.76-5.86,14.8-5.86,9.59,0,14.8,4.38,17.07,8.78,1.47,2.61,1.47,5.7,1.47,7.97v27.97Z"/><path class="cls-1" d="m347.54,99.49l-2.11-1.14c-.49-.17-1.14.16-1.46.81-2.76,5.37-9.75,11.07-19.68,11.07-13,0-23.09-12.04-23.09-27.98,0-3.74.16-6.34.48-7.81h40.17c2.6,0,4.56-.32,4.56-2.6,0-6.34-5.2-23.9-23.91-23.9-8.13,0-16.25,1.46-23.25,8.62-8.61,8.62-10.24,19.52-10.24,25.85,0,11.39,1.46,17.4,7.16,25.7,6.01,8.78,16.25,11.55,25.52,11.55,14.47,0,22.93-11.22,25.86-17.73.81-1.78.49-2.27,0-2.43m-28.13-46.67c10.58,0,12.52,10.73,12.52,14.47,0,1.46-1.3,2.28-4.38,2.28h-25.21c3.09-12.04,9.92-16.76,17.07-16.76"/><path class="cls-1" d="m434.03,8.43h4.39c.98,0,1.14-.5,1.14-1.14V3.23c0-.82-.16-1.14-1.14-1.14-1.47,0-5.53.5-17.4.5-10.24,0-17.73-.5-19.2-.5-.81,0-.97.33-.97,1.14v3.74c0,.97.17,1.47.82,1.47h4.23c4.07,0,5.2,1.79,5.2,3.74,0,2.28-.96,5.2-2.27,9.27-2.44,7.15-8.62,25.86-10.24,30.25-1.3,3.74-13.98,37.23-17.39,44.88h-.33c-3.74-9.91-13.17-37.89-15.12-44.06-2.93-9.11-8.94-28.46-9.91-34.31-.5-2.28-.66-4.23-.66-5.54,0-2.76,2.28-4.22,6.83-4.22h7.81c1.13,0,1.3-.66,1.3-1.47v-3.74c0-.65-.17-1.14-1.62-1.14s-8.79.5-22.44.5c-12.68,0-18.04-.5-19.68-.5-.98,0-1.14.33-1.14,1.14v4.07c0,.64.17,1.14.82,1.14h4.23c3.41,0,5.04,1.63,6.66,5.36,2.12,4.88,9.76,28.46,13.66,40l1.63,5.54c2.11,5.85,15.28,42.92,20.49,57.88.81,2.11,1.46,3.75,2.76,3.75.82,0,1.63-.82,2.27-2.12.81-1.63,21.79-53.34,23.75-58.7,2.76-6.83,15.77-40.16,20-45.37,3.09-3.74,6.18-6.34,11.55-6.34"/><path class="cls-1" d="m536.16,32.89c-7.11-15.16-18.3-22.7-27.58-27.03-12.38-5.78-28.34-9.63-48.67.09-17.74,8.41-26.63,21.31-30.82,30.3-10.03,21.52-6.26,42.66,1.25,53.88,8.28,12.65,20,20.99,27.22,24.35,20.34,9.48,37.58,6.76,52.14-.98,12.48-6.75,21.09-16.37,26.11-27.12,9.48-20.34,6.78-39.18.36-53.48m-27.37,61.64c-11.08,9.31-42.98,28.22-65.97.8-8.89-10.58-16.44-43.09,16.33-70.58,10.22-8.58,26.25-15.01,41.23-13.36,16.68,1.91,22.29,11.64,23.87,13.51,11.59,13.82,11.83,46.74-15.45,69.63"/><path class="cls-1" d="m637.22,84.37l-2.6-.98c-.66-.33-.98,0-1.31.65-2.27,6.34-12.03,25.85-21.62,27.32-5.04.65-37.24.32-40.81,0-.5-6.66-.5-41.79-.5-44.56v-13.98c0-11.38.5-35.94.5-38.05,0-4.71.65-6.34,5.69-6.34h9.75c1.31,0,1.63-.49,1.63-1.3v-3.74c0-.81-.16-1.3-1.47-1.3-1.46,0-8.29.49-24.06.49-13.5,0-19.35-.49-21.14-.49-.98,0-1.14.33-1.14,1.14v3.57c0,.82.17,1.63,1.14,1.63h7.64c4.88,0,5.69,1.62,6.02,5.86.16,2.92.49,20.16.49,30.56v9.11c0,9.92-.49,50.41-.49,53.5,0,2.11-.98,4.39-6.99,4.39h-7.81c-.97,0-1.13.32-1.13,1.14v4.06c0,.82.16,1.14,1.29,1.14s3.09-.17,6.34-.33c3.42,0,8.13-.16,14.47-.16,8.78,0,24.72,0,39.19.16,14.47,0,27.15.16,29.27.33.98-4.39,7.48-31.23,7.97-32.36.16-.98.16-1.14-.33-1.46"/><path class="cls-1" d="m289.91,188.04c0,1.22-.94,2.2-2.1,2.2s-2.1-.98-2.1-2.2.94-2.2,2.1-2.2,2.1.98,2.1,2.2"/><path class="cls-1" d="m494.35,188.04c0,1.22-.94,2.2-2.1,2.2s-2.1-.98-2.1-2.2.94-2.2,2.1-2.2,2.1.98,2.1,2.2"/><path class="cls-1" d="m635.72,187.12c0,1.22-.94,2.2-2.1,2.2s-2.1-.98-2.1-2.2.94-2.2,2.1-2.2,2.1.99,2.1,2.2"/><path class="cls-1" d="m2.57,168.33c1.35,0,2.25.1,3.7.1,1.95,0,5.35-.15,6.55-.15.9,0,1.25.2,1.25.55s-.4.65-1.15.85c-2.9.65-3.25,1.2-3.35,1.95-.3,2.25-.3,7.3-.3,14.7,0,3.9.15,8.7.35,10.35.1.7,1.3,1.85,1.7,1.9,1.3.2,3.15.25,4.8.25,1.4,0,2.8-.05,3.55-.15.4-.05,1-.05,2-.95.7-.7,1.5-1.45,2.85-3.35.55-.9,1-1.1,1.25-1.1s.4.55.2,1.35c-.8,2.45-1.15,3.5-1.55,5.4-.05.55-1,.85-1.2.85-.6,0-5.15-.3-15.3-.3-3.4,0-5.75.25-6.45.25-.95,0-1.45-.1-1.45-.55,0-.35.4-.75,1.2-.9,2.75-.55,3.45-1.5,3.7-3.45.1-1.25.25-9.2.25-16.45,0-2,0-5.45-.05-7.1-.05-1.1-.3-2.05-2.65-2.5-1-.2-1.4-.6-1.4-.95s.4-.6,1.5-.6Z"/><path class="cls-1" d="m44.02,182.33c1.1,1.05,1.75,2.45,1.75,4.2,0,.3-.4.85-.95.85s-9.1,0-11.4-.05c-.15,0-.35.25-.4.4-.15.4-.25,1.25-.25,1.75,0,1.95.8,4.25,1.9,5.7,1.1,1.5,3.2,2.75,5.6,2.75,2.2,0,3.7-.55,4.55-1.8.2-.3.45-.6.65-.6.3,0,.4.35.4.6,0,.4-.2.95-.35,1.2-1.75,2.55-4.4,3.75-7.25,3.75-5.4,0-9-4.1-9-9.95,0-4,2.1-8,6-9.8,1.3-.6,2.95-.9,3.8-.9,1.75,0,3.7.65,4.95,1.9Zm-10.5,3.1c-.1.25.1.55.2.55,1.3.05,3.95.05,6.45,0,1.2,0,1.7-.25,1.7-1.25,0-1.4-1.5-3-3.3-3-2.25,0-4.15,1.4-5.05,3.7Z"/><path class="cls-1" d="m50.12,200.78c-.8,0-1.3-.2-1.3-.55,0-.3.35-.55,1.2-.8,1.15-.3,1.9-.9,2-1.4.15-.7.2-3.7.2-5.15s.05-7.2-.05-7.8c-.05-.35-.6-.75-2.05-1.8-.3-.2-.4-.35-.4-.55,0-.35.45-.75,1-.85,1.85-.4,4.2-1.5,4.95-1.7.2,0,.45.5.45.55,0,.55-.3,7.05-.3,9.9s.05,4.9.1,6.65c.05,1.6,1.15,1.7,2.4,2.1.8.25,1.1.5,1.1.85,0,.3-.6.5-1.15.5-.35,0-2.85-.15-3.9-.15-1.65,0-3.4.2-4.25.2Zm6.35-28.1c0,1.35-1.4,2.45-2.4,2.45-.35,0-1.15-.2-1.6-.6-.4-.45-.75-1-.75-1.85,0-.45.2-1.25.6-1.8.5-.45,1.25-.65,1.95-.65,1.35,0,2.2,1.55,2.2,2.45Z"/><path class="cls-1" d="m78.02,181.68c.5.35.75,1.2.75,1.5,0,.8-1.45,2-1.65,2-.3,0-1.15-.4-1.95-.95-1.65-1.2-2.5-1.95-4.2-1.95-.8,0-2.3.7-3.1,1.7-1.35,1.5-2.1,3.55-2.1,5.75,0,2.9,1.1,4.7,1.3,5,1.25,2.1,3.7,3.35,6.3,3.35,1.85,0,3.15-.6,4.45-1.5.55-.4.95-.25.95,0,0,.55-.25,1.05-.65,1.45-1.75,1.95-4.6,3.1-7.2,3.1-3.15,0-5.8-1.65-7.4-4-.85-1.4-1.55-3.75-1.55-5.85,0-3.65,1.95-6.7,4.85-8.65,1.95-1.4,5.2-2.1,6.55-2.1,1.5,0,3.7.4,4.65,1.15Z"/><path class="cls-1" d="m96.82,182.33c1.1,1.05,1.75,2.45,1.75,4.2,0,.3-.4.85-.95.85s-9.1,0-11.4-.05c-.15,0-.35.25-.4.4-.15.4-.25,1.25-.25,1.75,0,1.95.8,4.25,1.9,5.7,1.1,1.5,3.2,2.75,5.6,2.75,2.2,0,3.7-.55,4.55-1.8.2-.3.45-.6.65-.6.3,0,.4.35.4.6,0,.4-.2.95-.35,1.2-1.75,2.55-4.4,3.75-7.25,3.75-5.4,0-9-4.1-9-9.95,0-4,2.1-8,6-9.8,1.3-.6,2.95-.9,3.8-.9,1.75,0,3.7.65,4.95,1.9Zm-10.5,3.1c-.1.25.1.55.2.55,1.3.05,3.95.05,6.45,0,1.2,0,1.7-.25,1.7-1.25,0-1.4-1.5-3-3.3-3-2.25,0-4.15,1.4-5.05,3.7Z"/><path class="cls-1" d="m112.07,180.68c.55.1,1.5.5,1.6.55.1.05.4.4.4.7,0,.9.15,2.6.15,2.95,0,.45-.2.9-.6.9-.2,0-.5-.3-.75-.85-1.1-2.35-2.35-3.35-4-3.35-2.05,0-3,2.05-3,3.1,0,1.7,1.6,3,4.95,4.85,2.8,1.65,3.9,3.35,3.9,5.6s-1.65,4-2.9,4.9c-.9.6-2.65,1.15-4.2,1.15s-4-.4-4.85-1.1c-.15-.25-.75-2.35-.75-3.8,0-.55.1-1.05.4-1.05.4,0,.75.6,1.05,1.15,1.4,2.55,2.75,3.55,4.55,3.55.65,0,1.45-.35,2-.75.75-.6,1.15-1.8,1.15-2.75,0-1.35-.7-2.4-2.25-3.35-1.2-.85-1.5-1.1-3.05-2.1-1.5-.95-3.1-2.7-3.1-5.05,0-1.7.85-3.35,2.75-4.5.95-.6,2.3-1.05,4-1.05.95,0,2,.15,2.55.3Z"/><path class="cls-1" d="m130.62,180.88s.55.25.55.4c0-.15.15,1.25.15,1.9,0,.45-.95.55-1.3.55h-5.45c-.25,0-.45.25-.45.35-.05,1-.1,8.35-.1,10.75,0,1.25.3,1.9.85,2.45.95.85,2,.95,3.05.95.65,0,1.7-.3,2.45-.75.45-.25.55-.3.75-.3.05,0,.3.1.3.55,0,.4-.35.9-.7,1.25-1.35,1.3-3.1,2.2-5.35,2.2-2.05,0-3.8-1.25-4.4-2.35-.55-.85-.65-1.9-.65-3.3,0-1.85.2-9.35.2-11.1,0-.35-.9-.7-1.9-1-.4-.15-.7-.4-.7-.55,0-.2.15-.4.3-.55,1.75-1.4,3.3-2.6,4-3.45.6-.7.95-1.1,1.15-1.1.25,0,.7.45.7.55v2.35c0,.15.2.4.4.4,1.1,0,5.95-.2,6.15-.2Z"/><path class="cls-1" d="m148.77,182.33c1.1,1.05,1.75,2.45,1.75,4.2,0,.3-.4.85-.95.85s-9.1,0-11.4-.05c-.15,0-.35.25-.4.4-.15.4-.25,1.25-.25,1.75,0,1.95.8,4.25,1.9,5.7,1.1,1.5,3.2,2.75,5.6,2.75,2.2,0,3.7-.55,4.55-1.8.2-.3.45-.6.65-.6.3,0,.4.35.4.6,0,.4-.2.95-.35,1.2-1.75,2.55-4.4,3.75-7.25,3.75-5.4,0-9-4.1-9-9.95,0-4,2.1-8,6-9.8,1.3-.6,2.95-.9,3.8-.9,1.75,0,3.7.65,4.95,1.9Zm-10.5,3.1c-.1.25.1.55.2.55,1.3.05,3.95.05,6.45,0,1.2,0,1.7-.25,1.7-1.25,0-1.4-1.5-3-3.3-3-2.25,0-4.15,1.4-5.05,3.7Z"/><path class="cls-1" d="m154.92,182.13c1.65-.55,3.2-1.3,3.7-1.6.6-.4.85-.6,1-.6.2,0,.45.45.45.6,0,.9-.1,1.8-.1,2.75,0,.2.25.25.35.2,1.95-1.85,4.15-3.1,5.7-3.1,2.05,0,2.5,1.25,2.5,1.7,0,.1-.15.45-.3.7-.55.8-1.75,2.15-2.05,2.3-.1.05-.55-.05-.7-.15-.55-.5-1.75-1.1-2.75-1.1-.85,0-1.7.15-2.2.7-.35.4-.5.85-.5,1.1,0,1,.25,10.05.3,10.8.1,1.45.4,2.4,1.3,2.55.65.15,1.55.4,2.3.6.8.25.9.6.9.8,0,.25-.45.45-1.2.45-1.25,0-3-.25-5.9-.25-1.5,0-2.1.2-3.3.2-.55,0-1.05-.2-1.05-.6,0-.3.6-.5,1-.65,1.95-.65,2.1-1.15,2.15-4.15v-9.55c0-.5,0-1.15-.55-1.5-1.2-.95-1.7-1.15-1.7-1.35,0-.15.1-.65.65-.85Z"/><path class="cls-1" d="m180.77,180.68c.55.1,1.5.5,1.6.55.1.05.4.4.4.7,0,.9.15,2.6.15,2.95,0,.45-.2.9-.6.9-.2,0-.5-.3-.75-.85-1.1-2.35-2.35-3.35-4-3.35-2.05,0-3,2.05-3,3.1,0,1.7,1.6,3,4.95,4.85,2.8,1.65,3.9,3.35,3.9,5.6s-1.65,4-2.9,4.9c-.9.6-2.65,1.15-4.2,1.15s-4-.4-4.85-1.1c-.15-.25-.75-2.35-.75-3.8,0-.55.1-1.05.4-1.05.4,0,.75.6,1.05,1.15,1.4,2.55,2.75,3.55,4.55,3.55.65,0,1.45-.35,2-.75.75-.6,1.15-1.8,1.15-2.75,0-1.35-.7-2.4-2.25-3.35-1.2-.85-1.5-1.1-3.05-2.1-1.5-.95-3.1-2.7-3.1-5.05,0-1.7.85-3.35,2.75-4.5.95-.6,2.3-1.05,4-1.05.95,0,2,.15,2.55.3Z"/><path class="cls-1" d="m205.07,182.68c1,1.35,1.45,3.25,1.45,5.4.05,3.15.15,6.25.2,9.25,0,1.25.65,1.65,1.95,1.95,1,.2,1.4.5,1.4.8,0,.45-.4.65-1.35.65-1.7,0-2.25-.15-3.95-.15-1.15,0-2.15.1-3.6.1-.75,0-1-.25-1-.6,0-.3.45-.55,1.05-.7,1.25-.4,1.4-.55,1.6-2.45.1-.95,0-6.45,0-7.25,0-2.75-.25-4.35-.8-5-.8-.95-2.1-1.65-4.05-1.65-2.15,0-3.8.95-4,1.15-.1.1-.75.9-.8,2.45-.15,2.1-.15,8.6-.1,10.4.1,1.65.8,1.95,1.95,2.25.7.2,1.1.55,1.1.8,0,.45-.55.6-1.25.6-.4,0-2.9-.1-4.1-.1s-2.95.15-3.8.15c-.45,0-1.15-.15-1.15-.65,0-.25.4-.55,1.45-.85,1.3-.45,1.8-1,1.95-2.85.15-2.1.5-8.85.5-13.9,0-2,.05-10.45-.15-11.9-.15-1.3-.25-1.4-1.65-2.3-.2-.1-.5-.6-.5-1,0-.1.05-.2.15-.25,1.55-.45,3.8-.95,5-1.75.2-.1.65-.35.95-.35.2,0,.3.4.3.55-.5,3.6-.7,16.05-.7,17.5,0,.3.3.35.35.3,2.05-1.85,4.2-2.9,6.3-2.9,2.5,0,4.25.85,5.3,2.3Z"/><path class="cls-1" d="m214.12,200.78c-.8,0-1.3-.2-1.3-.55,0-.3.35-.55,1.2-.8,1.15-.3,1.9-.9,2-1.4.15-.7.2-3.7.2-5.15s.05-7.2-.05-7.8c-.05-.35-.6-.75-2.05-1.8-.3-.2-.4-.35-.4-.55,0-.35.45-.75,1-.85,1.85-.4,4.2-1.5,4.95-1.7.2,0,.45.5.45.55,0,.55-.3,7.05-.3,9.9s.05,4.9.1,6.65c.05,1.6,1.15,1.7,2.4,2.1.8.25,1.1.5,1.1.85,0,.3-.6.5-1.15.5-.35,0-2.85-.15-3.9-.15-1.65,0-3.4.2-4.25.2Zm6.35-28.1c0,1.35-1.4,2.45-2.4,2.45-.35,0-1.15-.2-1.6-.6-.4-.45-.75-1-.75-1.85,0-.45.2-1.25.6-1.8.5-.45,1.25-.65,1.95-.65,1.35,0,2.2,1.55,2.2,2.45Z"/><path class="cls-1" d="m227.27,182.13c1.65-.55,3.2-1.3,3.7-1.6.6-.4.85-.6,1-.6.2,0,.45.45.45.6,0,.9-.1,1.8-.1,2.75,0,.2.25.25.35.2,1.95-1.85,4.15-3.1,5.7-3.1,2.05,0,2.5,1.25,2.5,1.7,0,.1-.15.45-.3.7-.55.8-1.75,2.15-2.05,2.3-.1.05-.55-.05-.7-.15-.55-.5-1.75-1.1-2.75-1.1-.85,0-1.7.15-2.2.7-.35.4-.5.85-.5,1.1,0,1,.25,10.05.3,10.8.1,1.45.4,2.4,1.3,2.55.65.15,1.55.4,2.3.6.8.25.9.6.9.8,0,.25-.45.45-1.2.45-1.25,0-3-.25-5.9-.25-1.5,0-2.1.2-3.3.2-.55,0-1.05-.2-1.05-.6,0-.3.6-.5,1-.65,1.95-.65,2.1-1.15,2.15-4.15v-9.55c0-.5,0-1.15-.55-1.5-1.2-.95-1.7-1.15-1.7-1.35,0-.15.1-.65.65-.85Z"/><path class="cls-1" d="m257.32,182.33c1.1,1.05,1.75,2.45,1.75,4.2,0,.3-.4.85-.95.85s-9.1,0-11.4-.05c-.15,0-.35.25-.4.4-.15.4-.25,1.25-.25,1.75,0,1.95.8,4.25,1.9,5.7,1.1,1.5,3.2,2.75,5.6,2.75,2.2,0,3.7-.55,4.55-1.8.2-.3.45-.6.65-.6.3,0,.4.35.4.6,0,.4-.2.95-.35,1.2-1.75,2.55-4.4,3.75-7.25,3.75-5.4,0-9-4.1-9-9.95,0-4,2.1-8,6-9.8,1.3-.6,2.95-.9,3.8-.9,1.75,0,3.7.65,4.95,1.9Zm-10.5,3.1c-.1.25.1.55.2.55,1.3.05,3.95.05,6.45,0,1.2,0,1.7-.25,1.7-1.25,0-1.4-1.5-3-3.3-3-2.25,0-4.15,1.4-5.05,3.7Z"/><path class="cls-1" d="m315.57,168.33c1.35,0,2.25.1,3.7.1,1.95,0,5.35-.15,6.55-.15.9,0,1.25.2,1.25.55s-.4.65-1.15.85c-2.9.65-3.25,1.2-3.35,1.95-.3,2.25-.3,7.3-.3,14.7,0,3.9.15,8.7.35,10.35.1.7,1.3,1.85,1.7,1.9,1.3.2,3.15.25,4.8.25,1.4,0,2.8-.05,3.55-.15.4-.05,1-.05,2-.95.7-.7,1.5-1.45,2.85-3.35.55-.9,1-1.1,1.25-1.1s.4.55.2,1.35c-.8,2.45-1.15,3.5-1.55,5.4-.05.55-1,.85-1.2.85-.6,0-5.15-.3-15.3-.3-3.4,0-5.75.25-6.45.25-.95,0-1.45-.1-1.45-.55,0-.35.4-.75,1.2-.9,2.75-.55,3.45-1.5,3.7-3.45.1-1.25.25-9.2.25-16.45,0-2,0-5.45-.05-7.1-.05-1.1-.3-2.05-2.65-2.5-1-.2-1.4-.6-1.4-.95s.4-.6,1.5-.6Z"/><path class="cls-1" d="m363.12,190.58c0,4.15-2.5,7.4-4.35,8.6-2,1.45-3.95,2-6.2,2s-4.8-1.05-6.65-2.6c-2.15-1.75-3.7-5.15-3.7-7.65,0-3.8,1.6-6.2,3.5-7.8,1.55-1.35,4.05-2.75,7.4-2.75,4.95,0,10,3.9,10,10.2Zm-14.2-7.25c-1.3,1.2-2.45,3.8-2.45,6.4,0,1.65.2,3.2.6,4.45,1.25,3.75,4.1,5.55,6.5,5.55.55,0,1.65-.25,3.05-1.65,1.25-1.35,2.25-4.45,2.25-6.6,0-2.6-.6-5.45-2.5-7.65-1.1-1.2-2.9-1.95-4.2-1.95-1.05,0-2.2.55-3.25,1.45Z"/><path class="cls-1" d="m367.81,181.78c.85-.3,2.65-.95,3.35-1.45.5-.3.95-.55,1.2-.55s.5.55.5.75c0,.85-.2,2.05-.2,2.5,0,.25.25.15.3.15,2-1.35,4.6-2.75,6.7-2.75,2.45,0,3.85,1.1,4.55,1.9,1.1,1.3,1.75,3.6,1.75,6.1,0,.95.1,8.4.15,9.1.1.75.6,1.4,1.85,1.75.95.25,1.25.5,1.25.85s-.7.55-1.5.55c-1.15,0-2.3-.1-3.7-.1-1.25,0-2.8.1-3.45.1-.45,0-1.15-.2-1.15-.6,0-.35.55-.65,1.15-.85,1.2-.45,1.45-.85,1.55-2.5.1-1.65.15-7.7.15-9.15,0-1.8-.9-3.25-1.5-3.7-.55-.4-2.05-.95-3.2-.95-2.2,0-3.5.75-4.45,1.6-.15.15-.5.75-.5,1.2,0,.65,0,11.4.05,12,.05.7.25,1.1,1.85,1.55.5.15.9.45.9.75,0,.35-.55.6-1.25.6-.6,0-2-.05-3.05-.05-1.85,0-3.3.15-4.15.15-.75,0-1.3-.2-1.3-.65,0-.35.5-.6,1.05-.75,1.65-.5,1.95-1,2.1-2.8.15-1.5.25-5.85.25-10.95,0-.55-.1-1.05-1.2-1.95-.65-.45-.95-.7-.95-.85,0-.35.55-.85.9-1Z"/><path class="cls-1" d="m407.01,180.58c.2.05.35-.3.4-.55.25-1.35.1-9-.05-10.2-.05-.25-.05-.85-2.35-2.05-.45-.25-.5-.35-.5-.45,0-.2.55-.8.85-.85,1.15-.15,3.8-.9,5.1-1.4.3-.1.45-.15.65-.15.15,0,.45.35.4.8-.25,2.65-.45,4.45-.45,19.75,0,9.65.1,10.45.1,11.4.1,1.85.5,2.05.8,2.05.55,0,2.2-.35,2.7-.4.2,0,.3.25.3.3,0,.35-.6,1.2-.85,1.25-.95.15-3.55.65-4.5,1-1.15.4-1.55.5-1.8.5-.2,0-.55-.4-.55-.65,0-.45.1-1.35.1-2.05,0-.2-.2-.3-.3-.3-2.3,2.05-4.85,2.5-6.5,2.5-2.4,0-4.7-1.1-6.25-2.75-1.6-1.8-2.4-4.35-2.4-6.85,0-4.9,2.85-7.75,5.3-9.2,2.3-1.4,5.25-1.9,6.6-1.9,1.8,0,2.6.1,3.2.2Zm-8.95,3.2c-.95.95-2.1,3.5-2.1,6.3,0,4,2.8,8.6,7.1,8.6,1.6,0,2.75-.55,3.65-1.2.1-.1.75-1.7.8-3.3.05-3.2,0-5.95-.15-8.3-.05-.4-.5-1.3-1.1-1.9-1.4-1.4-3.3-1.95-4.3-1.95-1.6,0-3,.85-3.9,1.75Z"/><path class="cls-1" d="m438.01,190.58c0,4.15-2.5,7.4-4.35,8.6-2,1.45-3.95,2-6.2,2s-4.8-1.05-6.65-2.6c-2.15-1.75-3.7-5.15-3.7-7.65,0-3.8,1.6-6.2,3.5-7.8,1.55-1.35,4.05-2.75,7.4-2.75,4.95,0,10,3.9,10,10.2Zm-14.2-7.25c-1.3,1.2-2.45,3.8-2.45,6.4,0,1.65.2,3.2.6,4.45,1.25,3.75,4.1,5.55,6.5,5.55.55,0,1.65-.25,3.05-1.65,1.25-1.35,2.25-4.45,2.25-6.6,0-2.6-.6-5.45-2.5-7.65-1.1-1.2-2.9-1.95-4.2-1.95-1.05,0-2.2.55-3.25,1.45Z"/><path class="cls-1" d="m442.71,181.78c.85-.3,2.65-.95,3.35-1.45.5-.3.95-.55,1.2-.55s.5.55.5.75c0,.85-.2,2.05-.2,2.5,0,.25.25.15.3.15,2-1.35,4.6-2.75,6.7-2.75,2.45,0,3.85,1.1,4.55,1.9,1.1,1.3,1.75,3.6,1.75,6.1,0,.95.1,8.4.15,9.1.1.75.6,1.4,1.85,1.75.95.25,1.25.5,1.25.85s-.7.55-1.5.55c-1.15,0-2.3-.1-3.7-.1-1.25,0-2.8.1-3.45.1-.45,0-1.15-.2-1.15-.6,0-.35.55-.65,1.15-.85,1.2-.45,1.45-.85,1.55-2.5.1-1.65.15-7.7.15-9.15,0-1.8-.9-3.25-1.5-3.7-.55-.4-2.05-.95-3.2-.95-2.2,0-3.5.75-4.45,1.6-.15.15-.5.75-.5,1.2,0,.65,0,11.4.05,12,.05.7.25,1.1,1.85,1.55.5.15.9.45.9.75,0,.35-.55.6-1.25.6-.6,0-2-.05-3.05-.05-1.85,0-3.3.15-4.15.15-.75,0-1.3-.2-1.3-.65,0-.35.5-.6,1.05-.75,1.65-.5,1.95-1,2.1-2.8.15-1.5.25-5.85.25-10.95,0-.55-.1-1.05-1.2-1.95-.65-.45-.95-.7-.95-.85,0-.35.55-.85.9-1Z"/><path class="cls-1" d="m537.41,182.43c-.15.05-.05.35.1.4,2.45,1.1,6.15,3.4,6.15,8.25,0,3.55-1.6,5.85-4,7.45-2.4,1.7-6.45,2.3-8.95,2.3-1.4,0-6.2-.2-8.5-.2-1.15,0-2.35.05-3.2.05-.75,0-1.45-.2-1.45-.65,0-.4.7-.7,1.25-.8,3.55-.65,3.55-1.3,3.75-3.05.15-1.05.4-6.45.4-16.4,0-4.3-.15-7.15-.3-7.9-.25-1.1-.4-1.65-3.15-2-.65-.1-1.3-.4-1.3-.8s.65-.65,1.35-.65h3.35c1.6,0,5.9-.35,7.95-.35,2.95,0,5.55.5,7.05,1.45,2.45,1.5,3.55,4.05,3.55,6.3,0,3.9-2.3,5.65-4.05,6.6Zm-2.6,2.65c-1.35-.7-3.45-.95-5.3-.95-1.15,0-2.1.25-2.2.35-.1.15-.25.35-.35,1.45-.15,1.8-.05,8.3.2,10.05.05.35.3,1.2.8,1.65,1.05,1.15,2.75,1.7,3.4,1.7,4.2,0,7.6-2.95,7.6-7.75,0-3-1.75-5.3-4.15-6.5Zm-4.85-15.45c-.3,0-1.6.2-2.15.4-.1.05-.55.6-.6.8-.1.8-.3,3.05-.3,11.1,0,.25.1.65.55.65,2.2,0,5.8-.45,7.05-1.25,1.6-1.05,2.75-3.05,2.75-5.15,0-4.05-2.65-6.55-7.3-6.55Z"/><path class="cls-1" d="m560.81,182.73c.75,1.05,1,2.05,1,4.15,0,1.95-.2,8.25-.2,8.8,0,2.3,1.6,2.5,2,2.5.2,0,1.35-.35,1.9-.75.15-.1.2,0,.3.15.15.15.15.45.15.5,0,.95-2.25,3.1-4.5,3.1-1.15,0-2.6-.65-3.2-2.5,0-.05-.2-.25-.3-.2-1.85,1.3-4,2.15-4.5,2.3-.55.2-1.75.3-2,.3-1.75,0-3.45-2.15-3.45-4.65,0-.9.4-1.85.95-2.55.5-.65,1.25-.9,2-1.25.75-.3,4.75-1.4,5.85-1.75,1.15-.35,1.45-.6,1.45-.9.05-.45.1-3.5.1-4.1,0-1.25-1.45-3.35-3.9-3.35-1.05,0-1.7.3-2.05.55-.3.15-.45,1.05-.35,2.05,0,.15-.2.45-.3.55-.5.4-3,1.65-3.25,1.65-.3,0-.6-.4-.6-.65,0-1.45,1.4-2.85,3.75-4.4,1.45-1.05,3.7-1.9,4.65-1.9,2.5,0,3.75,1.25,4.5,2.35Zm-3.3,14.9c.3-.2.6-1.15.6-1.25.1-1.2.1-2.9.1-3.9,0-.15-.2-.4-.4-.4-1.4,0-3.8.85-5.15,1.5-.5.35-1,.7-1,1.9,0,2.2,2.1,3,3.15,3,.75,0,1.75-.35,2.7-.85Z"/><path class="cls-1" d="m579.91,180.88s.55.25.55.4c0-.15.15,1.25.15,1.9,0,.45-.95.55-1.3.55h-5.45c-.25,0-.45.25-.45.35-.05,1-.1,8.35-.1,10.75,0,1.25.3,1.9.85,2.45.95.85,2,.95,3.05.95.65,0,1.7-.3,2.45-.75.45-.25.55-.3.75-.3.05,0,.3.1.3.55,0,.4-.35.9-.7,1.25-1.35,1.3-3.1,2.2-5.35,2.2-2.05,0-3.8-1.25-4.4-2.35-.55-.85-.65-1.9-.65-3.3,0-1.85.2-9.35.2-11.1,0-.35-.9-.7-1.9-1-.4-.15-.7-.4-.7-.55,0-.2.15-.4.3-.55,1.75-1.4,3.3-2.6,4-3.45.6-.7.95-1.1,1.15-1.1.25,0,.7.45.7.55v2.35c0,.15.2.4.4.4,1.1,0,5.95-.2,6.15-.2Z"/><path class="cls-1" d="m601.11,182.68c1,1.35,1.45,3.25,1.45,5.4.05,3.15.15,6.25.2,9.25,0,1.25.65,1.65,1.95,1.95,1,.2,1.4.5,1.4.8,0,.45-.4.65-1.35.65-1.7,0-2.25-.15-3.95-.15-1.15,0-2.15.1-3.6.1-.75,0-1-.25-1-.6,0-.3.45-.55,1.05-.7,1.25-.4,1.4-.55,1.6-2.45.1-.95,0-6.45,0-7.25,0-2.75-.25-4.35-.8-5-.8-.95-2.1-1.65-4.05-1.65-2.15,0-3.8.95-4,1.15-.1.1-.75.9-.8,2.45-.15,2.1-.15,8.6-.1,10.4.1,1.65.8,1.95,1.95,2.25.7.2,1.1.55,1.1.8,0,.45-.55.6-1.25.6-.4,0-2.9-.1-4.1-.1s-2.95.15-3.8.15c-.45,0-1.15-.15-1.15-.65,0-.25.4-.55,1.45-.85,1.3-.45,1.8-1,1.95-2.85.15-2.1.5-8.85.5-13.9,0-2,.05-10.45-.15-11.9-.15-1.3-.25-1.4-1.65-2.3-.2-.1-.5-.6-.5-1,0-.1.05-.2.15-.25,1.55-.45,3.8-.95,5-1.75.2-.1.65-.35.95-.35.2,0,.3.4.3.55-.5,3.6-.7,16.05-.7,17.5,0,.3.3.35.35.3,2.05-1.85,4.2-2.9,6.3-2.9,2.5,0,4.25.85,5.3,2.3Z"/><path class="cls-1" d="m660.61,168.28c1.1,0,3.55.15,6.1.15.3,0,.75.35,1.05.65.75.9,2,2.4,3.95,4.95,2.25,2.85,13.25,14.85,16.6,18.5.3.3.5-.2.5-.35.25-1.6.1-7,.1-14.2,0-1.7-.1-3.45-.25-5-.05-1.05-.4-2.25-3.15-3.05-1-.3-1.35-.7-1.35-1.1,0-.35.7-.45,1.3-.45,1.3,0,2.7.05,4.3.05,1.8,0,3.4-.2,4.7-.2.85,0,1.15.15,1.15.55,0,.3-.3.75-1.2,1-2.15.5-3.05.95-3.2,3.65-.1,1.8-.55,11.65-.55,20.25,0,2.1.35,5.85.35,6.65,0,.5-.25,1.05-.7,1.05-.7,0-1.8-1-2.25-1.6-.85-1.05-1.75-2.35-3.1-4-4.7-5.6-13.35-15.35-17.85-20.75-.2-.25-.55-.15-.55.1-.05,1.35-.2,2.75-.25,6.65,0,4.5-.15,12.2-.05,13.75.2,2.3.75,3.05,3.15,3.75,1.05.25,1.25.6,1.25.9,0,.5-.65.65-1.6.65-1.45,0-3.55-.25-5.35-.25-1.1,0-2.4.1-3.25.1-.7,0-1.3-.05-1.3-.55,0-.4.5-.7,1-.85,2.35-.8,3.3-1,3.5-4.7.25-4.05.95-16.05.95-20.2,0-1.8-.25-2.25-.35-2.4-1.4-1.65-1.95-1.7-4.2-2.3-.55-.15-1.1-.4-1.1-.8s.5-.6,1.65-.6Z"/><path class="cls-1" d="m711.26,182.33c1.1,1.05,1.75,2.45,1.75,4.2,0,.3-.4.85-.95.85s-9.1,0-11.4-.05c-.15,0-.35.25-.4.4-.15.4-.25,1.25-.25,1.75,0,1.95.8,4.25,1.9,5.7,1.1,1.5,3.2,2.75,5.6,2.75,2.2,0,3.7-.55,4.55-1.8.2-.3.45-.6.65-.6.3,0,.4.35.4.6,0,.4-.2.95-.35,1.2-1.75,2.55-4.4,3.75-7.25,3.75-5.4,0-9-4.1-9-9.95,0-4,2.1-8,6-9.8,1.3-.6,2.95-.9,3.8-.9,1.75,0,3.7.65,4.95,1.9Zm-10.5,3.1c-.1.25.1.55.2.55,1.3.05,3.95.05,6.45,0,1.2,0,1.7-.25,1.7-1.25,0-1.4-1.5-3-3.3-3-2.25,0-4.15,1.4-5.05,3.7Z"/><path class="cls-1" d="m723.21,180.93c.9,0,1.3.3,1.3.55,0,.3-.4.6-1.25.8-1.1.2-1.35.8-.9,1.95.6,1.95,3.95,10.5,4.3,11.1.15.3.35.25.45,0,.55-1.1,2.5-5.35,3.5-7.6.25-.55.25-.8.25-1-.05-.35-.4-1.65-.8-2.4-.55-1-.95-1.8-2.1-2.1-.65-.2-1.1-.4-1.1-.8,0-.35.35-.5,1.2-.5.7,0,2.2.15,3.35.15.9,0,2.4-.15,3.5-.15.75,0,1.2.25,1.2.55,0,.35-.35.65-1.2.8-1.3.3-1.45.9-1.45,1.1,0,.35.25.85.6,1.8.3.75,2.8,7.55,3.85,10,.1.35.3.25.45-.05.85-1.8,2.35-5.8,3.35-8.35.55-1.45.85-2.55.85-3,0-.5-.1-1.1-1.95-1.55-.45-.15-1.15-.35-1.15-.8,0-.3.65-.5,1.15-.5.55,0,2.35.15,3.1.15,1.65,0,2.9-.25,3.7-.25.6,0,1.05.2,1.05.5,0,.45-.55.6-1.15.75-1.65.5-1.85,1.05-2.65,2.4-1.65,2.95-3.3,7.05-4.8,10.75-.85,2.1-1.6,3.75-2.1,5.4-.15.5-.4.6-.65.6s-.65-.35-.95-.75c-.2-.55-.8-2.5-1.3-3.7-.65-1.6-2.25-5.6-3.1-7.65-.05-.1-.3-.1-.35.05-1.2,2.5-3.05,6.35-4.55,10.1-.2.55-.8,2.05-1.25,2.05s-.7-.15-.9-.75c-.1-.25-.75-2.1-1.5-4.3-.35-1-3.25-8.25-4.3-10.7-.8-1.85-1.4-3-2.8-3.35-.7-.15-1.25-.45-1.25-.75,0-.45.5-.6,1.45-.6.85,0,2.3.2,3.4.2,1.25,0,2.65-.15,3.5-.15Z"/><path class="cls-1" d="m759.81,168.18c.75,0,3.35.25,5.7.25,1.4,0,1.8-.1,3.8-.1.8,0,1.1.2,1.1.5,0,.35-.35.8-1.1,1-1.8.4-1.45,1-.75,2.3.6,1.15,4.3,7.3,6.55,10.95.1.15.4.1.5-.1,1.4-2,5.2-8.25,6.45-10.3,1.05-1.8.5-2.4-1.45-2.85-.75-.2-1.05-.65-1.05-1s.6-.45,1.15-.45c1.3,0,2.1.05,3.25.05,1.85,0,4.75-.2,5.55-.2.55,0,1.05.2,1.05.5,0,.4-.45.65-1.3.9-2.35.6-3.8,1.85-5.45,3.9-2.35,2.95-4.95,7.35-6.65,9.8-.55.8-1.25,2.4-1.25,3.05,0,2.8.1,9,.3,10.6.2,1.05.75,1.65,3.55,2.35,1,.25,1.35.55,1.35.9,0,.4-.5.55-1.5.55-.75,0-3.2-.2-4.35-.2-3,0-6.25.3-7,.3-.85,0-1.25-.25-1.25-.55s.35-.7,1.4-.9c2.7-.6,3.2-1.7,3.25-2.4.15-2.05.15-7.45.15-10.35,0-.25-.3-1.4-.45-1.8-.85-1.8-3.95-6.85-6.35-10.5-2.35-3.5-2.95-4.2-5.15-4.7-.95-.2-1.4-.6-1.4-1,0-.3.5-.5,1.35-.5Z"/><path class="cls-1" d="m806.06,190.58c0,4.15-2.5,7.4-4.35,8.6-2,1.45-3.95,2-6.2,2s-4.8-1.05-6.65-2.6c-2.15-1.75-3.7-5.15-3.7-7.65,0-3.8,1.6-6.2,3.5-7.8,1.55-1.35,4.05-2.75,7.4-2.75,4.95,0,10,3.9,10,10.2Zm-14.2-7.25c-1.3,1.2-2.45,3.8-2.45,6.4,0,1.65.2,3.2.6,4.45,1.25,3.75,4.1,5.55,6.5,5.55.55,0,1.65-.25,3.05-1.65,1.25-1.35,2.25-4.45,2.25-6.6,0-2.6-.6-5.45-2.5-7.65-1.1-1.2-2.9-1.95-4.2-1.95-1.05,0-2.2.55-3.25,1.45Z"/><path class="cls-1" d="m810.66,182.13c1.65-.55,3.2-1.3,3.7-1.6.6-.4.85-.6,1-.6.2,0,.45.45.45.6,0,.9-.1,1.8-.1,2.75,0,.2.25.25.35.2,1.95-1.85,4.15-3.1,5.7-3.1,2.05,0,2.5,1.25,2.5,1.7,0,.1-.15.45-.3.7-.55.8-1.75,2.15-2.05,2.3-.1.05-.55-.05-.7-.15-.55-.5-1.75-1.1-2.75-1.1-.85,0-1.7.15-2.2.7-.35.4-.5.85-.5,1.1,0,1,.25,10.05.3,10.8.1,1.45.4,2.4,1.3,2.55.65.15,1.55.4,2.3.6.8.25.9.6.9.8,0,.25-.45.45-1.2.45-1.25,0-3-.25-5.9-.25-1.5,0-2.1.2-3.3.2-.55,0-1.05-.2-1.05-.6,0-.3.6-.5,1-.65,1.95-.65,2.1-1.15,2.15-4.15v-9.55c0-.5,0-1.15-.55-1.5-1.2-.95-1.7-1.15-1.7-1.35,0-.15.1-.65.65-.85Z"/><path class="cls-1" d="m840.01,181.08c3.3,0,5.05-.6,6.75-.6.2,0,.35.2.35.35,0,.6-.8,1.05-1,1.1-2.7.6-3.55,1.1-5.8,2.65-1.5,1.1-3.85,3.45-4.05,3.8-.1.2-.1.4-.05.5,1.7,2.1,6.5,7.3,8.05,8.85.9.85,1.8,1.45,3.4,1.8.85.2,1.2.6,1.2.8,0,.5-.65.6-1.25.6-1.15,0-3.65-.3-6.25-.3h-2.25c-.7,0-1.25-.2-1.25-.65,0-.3.45-.55,1.1-.7,1.05-.25,1.2-.7.65-1.4s-3.15-3.45-5.65-6.35c-.5-.6-1-1.15-1.25-1.15-.2,0-.25.3-.25.4-.25.65-.25,5.45.05,6.95.15,1,.5,1.3,1.85,1.65.6.15,1.1.35,1.1.75,0,.45-.65.55-1.2.55-1.25,0-2.9-.1-4.15-.1-1.75,0-3.1.2-4.2.2-.6,0-1.15-.15-1.15-.55,0-.35.5-.55,1.15-.75,2-.5,2.35-.95,2.6-2.2.2-.95.35-10.5.35-17.15s-.15-9.25-.3-10.55c0-.15-.1-.45-1.5-1.3-.4-.3-.65-.55-.65-.7,0-.2.25-.5.65-.65.5-.15,3-.7,4.35-1.55.5-.3.75-.45,1-.45.1,0,.4.45.35.65-.25,1.2-.45,14.1-.45,18.4,0,1.95,0,4.6.15,5.05.1.3.15.45.4.45s.65-.35,1-.65c1.65-1.55,4.4-4.1,5.3-5.4.2-.25.35-.75-1.9-1.1-.3-.05-.45-.2-.45-.35,0-.2.5-.9.85-.9h2.35Z"/></svg>